<svg width="166" height="154" viewBox="0 0 166 154" fill="none" xmlns="http://www.w3.org/2000/svg">
<path d="M100.518 117.396C103.122 111.531 107.491 106.624 113.017 103.36C120.346 99.0072 125.598 92.0283 127.426 84.222C128.571 79.0661 131.413 74.4435 135.498 71.0949C143.212 64.963 147.176 55.8649 146.103 46.7537C145.688 43.2054 146.558 39.523 148.615 36.099C153.965 27.1905 153.7 16.6241 148.222 9.54379C153.926 4.03653 158.194 5.45914 161.821 7.37883C162.471 7.72316 163.232 7.79498 163.935 7.57848C164.639 7.36199 165.227 6.8749 165.572 6.22439C165.916 5.57388 165.988 4.81323 165.771 4.10976C165.555 3.4063 165.068 2.81765 164.417 2.47332C157 -1.45109 150.482 -0.440565 144.206 5.67824C137.129 0.615756 126.906 0.517643 118.243 5.72076C114.819 7.7778 111.137 8.64771 107.588 8.23238C98.4839 7.16625 89.3858 11.1299 83.2473 18.8381C79.8987 22.9223 75.2761 25.7644 70.1202 26.9093C62.3139 28.7374 55.3383 33.9928 50.9822 41.3184C47.72 46.8451 42.8142 51.2158 36.9491 53.8209C28.1683 57.7224 21.7977 65.4862 18.5371 76.2685C17.3729 80.1079 15.3976 82.4233 12.9023 85.3568C9.98846 88.7743 6.35838 93.0258 3.85658 100.289C0.00738836 111.556 0.824971 120.68 1.56734 128.741C1.95978 133.13 2.30315 136.933 1.85839 140.596C1.62844 142.245 1.78401 143.925 2.31287 145.503C2.84173 147.082 3.72947 148.517 4.90635 149.694C6.02304 150.784 7.37386 151.605 8.85589 152.095C10.3379 152.584 11.912 152.728 13.4583 152.517C17.2192 152.026 21.0945 152.363 25.5945 152.768C33.6461 153.494 42.7704 154.312 54.0465 150.479C61.3263 147.994 65.5875 144.36 68.9985 141.453C71.9287 138.954 74.2441 136.979 78.0835 135.815C88.8527 132.541 96.6132 126.174 100.518 117.396ZM129.408 8.27816C125.896 10.4824 123.031 14.8646 117.893 19.1978C114.562 22.0713 110.489 23.9483 106.14 24.6135C99.1935 25.6012 94.7589 28.4006 90.8313 34.2708C87.9759 38.4542 83.8574 41.6147 79.0777 43.2904C70.2805 46.5084 64.1845 51.2047 60.4335 57.644C58.0298 61.7809 54.815 66.3104 49.2522 68.4721C40.7722 71.7653 35.8928 75.0552 34.4277 82.9564C32.5407 93.1173 28.7864 96.9044 24.4368 101.293C22.3346 103.332 20.3825 105.52 18.596 107.84C14.5375 113.207 10.5379 119.045 7.79079 125.055C7.74473 125.156 7.66675 125.238 7.56904 125.289C7.47132 125.341 7.35936 125.358 7.25065 125.339C7.14195 125.32 7.0426 125.265 6.96815 125.184C6.89371 125.102 6.84833 124.999 6.83913 124.889C6.59785 122.107 6.5105 119.314 6.5775 116.523C6.57762 116.447 6.59671 116.371 6.63309 116.304C8.78718 112.157 11.3054 108.209 14.1581 104.508C16.0969 101.986 18.2139 99.6072 20.4928 97.3884C24.5022 93.3462 27.3997 90.4226 28.9695 81.9393C30.8892 71.5821 37.3841 67.1279 47.2409 63.2951C51.1947 61.7613 53.6148 58.3275 55.6391 54.8511C60.0639 47.2475 67.1082 41.7599 77.1711 38.0808C80.8427 36.8033 84.0114 34.3884 86.2168 31.1869C90.9948 24.0477 96.8945 20.3261 105.355 19.1193C108.673 18.6003 111.778 17.1589 114.316 14.9595C114.643 14.6848 114.963 14.4035 115.28 14.1321C116.443 13.1126 117.739 12.2565 119.133 11.5877C119.815 11.2585 120.485 10.8966 121.141 10.502C123.599 9.01208 126.331 8.03222 129.176 7.62083C129.257 7.61297 129.339 7.63293 129.407 7.67743C129.476 7.72193 129.527 7.78835 129.553 7.86582C129.579 7.94329 129.578 8.02723 129.549 8.10391C129.521 8.1806 129.468 8.24549 129.398 8.28798L129.408 8.27816ZM59.073 99.0072C57.428 102.372 55.7274 105.852 50.6159 110.964C45.5043 116.075 42.0214 117.779 38.6563 119.424C35.5789 120.925 32.6486 122.364 28.1879 126.825C25.5518 129.347 23.3526 132.288 21.6799 135.53C19.9205 138.742 18.2493 141.793 11.8689 146.748C11.7517 146.838 11.6157 146.902 11.4709 146.934C11.3261 146.965 11.1761 146.964 11.0317 146.931C10.1808 146.738 9.39966 146.314 8.77418 145.706C8.1487 145.098 7.70316 144.329 7.48665 143.484C7.4657 143.391 7.4725 143.293 7.5062 143.204C7.53991 143.114 7.59904 143.037 7.67633 142.98C13.8082 138.359 15.1458 135.923 16.8169 132.872C18.7377 129.169 21.2521 125.806 24.2602 122.917C29.375 117.802 32.8547 116.101 36.2199 114.456C39.2972 112.955 42.2307 111.513 46.6882 107.056C51.1457 102.598 52.5748 99.6776 54.089 96.5872C55.734 93.222 57.4346 89.7423 62.5461 84.6308C67.6576 79.5193 71.1373 77.8187 74.5025 76.1737C77.5798 74.6726 80.5133 73.2304 84.9708 68.7729C89.3694 64.3743 90.6252 61.346 91.9792 58.1214C93.4639 54.5502 95.0042 50.858 100.178 45.6843C105.767 40.0953 110.071 37.9173 113.868 35.9976C116.85 34.4867 119.669 33.0608 123.047 30.0488C127.328 26.2258 128.411 24.365 129.657 22.2098C131.194 19.5543 132.934 16.5587 139.984 10.3646C140.143 10.225 140.345 10.144 140.556 10.1351C140.768 10.1261 140.975 10.1898 141.145 10.3156C141.705 10.719 142.232 11.1651 142.722 11.6499C143.175 12.103 143.595 12.5871 143.981 13.0987C144.119 13.2853 144.182 13.517 144.157 13.7478C144.132 13.9786 144.021 14.1917 143.847 14.3446C137.309 20.0579 135.861 22.5597 134.461 24.9798C133.097 27.3312 131.688 29.761 126.743 34.176C122.822 37.672 119.545 39.3333 116.373 40.9358C112.612 42.8391 109.063 44.6345 104.102 49.5956C99.707 53.991 98.4479 57.0226 97.094 60.2471C95.6092 63.8184 94.0689 67.5106 88.8952 72.6842C83.7837 77.7958 80.304 79.4964 76.9389 81.1414C73.8615 82.6424 70.928 84.0847 66.4705 88.5421C62.013 92.9996 60.5774 95.9266 59.0632 99.017L59.073 99.0072ZM72.4323 125.402C63.9491 126.972 61.0254 129.869 56.9833 133.879C54.7645 136.158 52.3852 138.275 49.8637 140.214C46.1673 143.062 42.2264 145.577 38.0872 147.732C38.0192 147.766 37.9443 147.785 37.8681 147.788C35.0725 147.855 32.2754 147.767 29.4895 147.526C29.3786 147.519 29.2733 147.474 29.1907 147.4C29.108 147.326 29.0528 147.226 29.0339 147.116C29.015 147.007 29.0336 146.894 29.0866 146.796C29.1395 146.699 29.2239 146.622 29.326 146.578C35.3369 143.837 41.1548 139.818 46.5312 135.776C48.8516 133.989 51.0397 132.037 53.0785 129.935C57.4673 125.585 61.2543 121.831 71.4153 119.944C79.3164 118.479 82.6031 113.603 85.8996 105.119C88.0613 99.5566 92.5874 96.3452 96.7277 93.9382C103.167 90.1871 107.873 84.101 111.081 75.294C112.755 70.5275 115.905 66.4192 120.075 63.5665C125.961 59.6421 128.731 55.2174 129.732 48.2581C130.397 43.9092 132.274 39.8358 135.148 36.5045C139.484 31.3635 143.85 28.4889 146.064 24.9863C146.109 24.9169 146.175 24.8647 146.253 24.838C146.332 24.8114 146.416 24.812 146.494 24.8397C146.572 24.8673 146.638 24.9205 146.681 24.9904C146.725 25.0604 146.744 25.1431 146.734 25.2251C146.319 28.0681 145.338 30.7991 143.85 33.257C143.453 33.9155 143.09 34.588 142.761 35.2748C142.091 36.6699 141.234 37.9671 140.213 39.1305C139.942 39.4478 139.664 39.765 139.393 40.0888C137.193 42.6265 135.752 45.7316 135.233 49.0495C134.026 57.5099 130.304 63.4096 123.165 68.1875C119.964 70.3929 117.549 73.5616 116.271 77.2333C112.595 87.2929 107.104 94.3404 99.5009 98.7652C96.0246 100.79 92.5907 103.21 91.0569 107.163C87.2339 116.997 82.7797 123.492 72.4225 125.412L72.4323 125.402Z" fill="#2C5E69"/>
</svg>
