<svg width="564" height="41" viewBox="0 0 564 41" fill="none" xmlns="http://www.w3.org/2000/svg">
<path d="M528.681 25.087C534.726 32.1778 542.244 41 556.95 41C560.847 41 564 37.8409 564 33.9368C564 30.0327 560.847 26.8735 556.95 26.8735C549.129 26.8735 545.37 22.9142 539.408 15.913C533.363 8.82218 525.845 -1.66782e-06 511.139 -2.31064e-06C496.44 -2.95315e-06 488.915 8.82218 482.87 15.913C476.908 22.9142 473.149 26.8735 465.321 26.8735C457.513 26.8735 453.761 22.9142 447.799 15.9199C441.761 8.82217 434.243 -5.67187e-06 419.544 -6.31438e-06C404.845 -6.95689e-06 397.327 8.82217 391.282 15.913C385.32 22.9142 381.561 26.8735 373.746 26.8735C365.918 26.8735 362.159 22.9142 356.197 15.913C350.152 8.82217 342.627 -9.67651e-06 327.928 -1.0319e-05C313.222 -1.09618e-05 305.697 8.82217 299.653 15.913C293.69 22.9142 289.931 26.8735 282.11 26.8735C274.282 26.8735 270.523 22.9142 264.561 15.913C258.516 8.82217 250.991 -1.36821e-05 236.292 -1.43246e-05C221.579 -1.49677e-05 214.061 8.82216 208.009 15.913C202.04 22.9142 198.288 26.8735 190.46 26.8735C182.639 26.8735 178.88 22.9142 172.918 15.913C166.873 8.82216 159.355 -1.76876e-05 144.649 -1.83304e-05C129.943 -1.89732e-05 122.418 8.82216 116.373 15.913C110.397 22.9142 106.638 26.8735 98.8033 26.8735C90.9615 26.8735 87.1956 22.9142 81.2196 15.9061C75.1747 8.82216 67.6428 -2.16965e-05 52.9301 -2.23396e-05C38.2104 -2.2983e-05 30.6854 8.82216 24.6337 15.9061C18.6577 22.9142 14.8917 26.8735 7.04999 26.8735C3.1532 26.8735 -1.31277e-06 30.0326 -1.48342e-06 33.9367C-1.65408e-06 37.8408 3.1532 41 7.04999 41C21.7696 41 29.2947 32.1778 35.3464 25.0939C41.3223 18.0858 45.0883 14.1265 52.9301 14.1265C60.7649 14.1265 64.5309 18.0858 70.5069 25.087C76.5517 32.1778 84.0836 41 98.8033 41C113.516 41 121.041 32.1778 127.093 25.087C133.062 18.0858 136.821 14.1265 144.649 14.1265C152.47 14.1265 156.229 18.0858 162.191 25.087C168.236 32.1778 175.754 41 190.46 41C205.166 41 212.691 32.1778 218.729 25.087C224.705 18.0858 228.464 14.1265 236.292 14.1265C244.113 14.1265 247.872 18.0858 253.834 25.087C259.879 32.1778 267.404 41 282.11 41C296.809 41 304.334 32.1778 310.379 25.087C316.341 18.0858 320.1 14.1265 327.928 14.1265C335.749 14.1265 339.508 18.0858 345.471 25.087C351.515 32.1778 359.041 41 373.746 41C388.445 41 395.964 32.1778 402.008 25.087C407.971 18.0858 411.73 14.1265 419.544 14.1265C427.358 14.1265 431.11 18.0858 437.072 25.087C443.11 32.1778 450.629 41 465.321 41C480.027 41 487.552 32.1778 493.596 25.087C499.559 18.0858 503.318 14.1265 511.139 14.1265C518.96 14.1265 522.719 18.0858 528.681 25.087Z" fill="black"/>
</svg>
