<svg width="110" height="118" viewBox="0 0 110 118" fill="none" xmlns="http://www.w3.org/2000/svg">
<path d="M53.6739 18.6428C49.3203 17.898 46.004 14.0372 46.004 9.386C46.004 4.2028 50.1304 0 55.2033 0C60.2837 0 64.4101 4.2028 64.4101 9.386C64.4101 14.0372 61.0863 17.898 56.7403 18.6428V32.8624C56.7403 33.7212 56.0513 34.428 55.2033 34.428C54.3629 34.428 53.6739 33.7212 53.6739 32.8624V18.6428Z" fill="#2079FE"/>
<path d="M48.3933 96.9732C46.5902 98.7022 45.4677 101.135 45.4677 103.831C45.4677 109.078 49.721 113.331 54.9677 113.331C60.2144 113.331 64.4677 109.078 64.4677 103.831C64.4677 103.398 64.4388 102.972 64.3827 102.554C64.0564 98.2339 60.8569 94.7323 56.7403 94.0196V79.8076C56.7403 78.9412 56.0513 78.242 55.2033 78.242C54.3629 78.242 53.6739 78.9412 53.6739 79.8076V94.0196C51.5942 94.379 49.7512 95.4478 48.3933 96.9732Z" fill="#2079FE"/>
<path d="M45.4677 117.331V117.205L45.2658 117.331H45.4677Z" fill="#2079FE"/>
<path d="M68.0369 36.7916L75.0026 24.4796C79.129 26.0528 83.899 24.396 86.178 20.368C88.7144 15.884 87.2077 10.1384 82.8087 7.5468C78.4097 4.9552 72.7766 6.4904 70.2401 10.982C67.9612 15.01 68.9454 20.0488 72.345 22.914L65.3793 35.226C64.9553 35.9708 65.2051 36.9284 65.9396 37.3616C66.674 37.7948 67.6129 37.5364 68.0369 36.7916Z" fill="#2079FE"/>
<path d="M75.896 45.9496L87.9573 38.8436C90.7663 42.3168 95.7029 43.32 99.6476 40.9944C104.047 38.4028 105.553 32.6572 103.017 28.1656C100.48 23.6816 94.8473 22.1388 90.4483 24.7304C86.5036 27.056 84.8833 31.92 86.4203 36.138L74.359 43.244C73.6246 43.6772 73.3747 44.6348 73.7987 45.3796C74.2227 46.132 75.1616 46.3828 75.896 45.9496Z" fill="#2079FE"/>
<path d="M78.2129 57.8968H92.1367C92.8712 62.3352 96.6569 65.7248 101.215 65.7248C106.288 65.7248 110.414 61.5144 110.414 56.3312C110.414 51.1556 106.288 46.9452 101.215 46.9452C96.6569 46.9452 92.8712 50.3348 92.1367 54.7732H78.2129C77.3649 54.7732 76.6759 55.4724 76.6759 56.3312C76.6759 57.1976 77.3649 57.8968 78.2129 57.8968Z" fill="#2079FE"/>
<path d="M74.359 69.426L86.4203 76.532C84.8833 80.75 86.5036 85.614 90.4483 87.9396C94.8473 90.5312 100.48 88.9884 103.017 84.5044C105.553 80.0128 104.047 74.2672 99.6476 71.6756C95.7029 69.35 90.7663 70.3532 87.9573 73.8264L75.896 66.7128C75.1616 66.2872 74.2227 66.538 73.7987 67.2904C73.3747 68.0352 73.6246 68.9928 74.359 69.426Z" fill="#2079FE"/>
<path d="M65.3793 77.444L72.345 89.756C68.9454 92.6212 67.9612 97.66 70.2401 101.688C72.7766 106.172 78.4097 107.715 82.8087 105.123C87.2077 102.532 88.7144 96.786 86.178 92.2944C83.899 88.274 79.129 86.6172 75.0026 88.1904L68.0369 75.8784C67.6129 75.1336 66.674 74.8752 65.9396 75.3084C65.2051 75.7416 64.9553 76.6992 65.3793 77.444Z" fill="#2079FE"/>
<path d="M40.174 101.688C42.4454 97.66 41.4687 92.6212 38.0691 89.756L45.0349 77.444C45.4589 76.6992 45.2014 75.7416 44.4746 75.3084C43.7401 74.8752 42.8013 75.1336 42.3773 75.8784L35.4116 88.1904C31.2776 86.6172 26.5151 88.274 24.2361 92.2944C21.6921 96.786 23.2064 102.532 27.5979 105.123C31.9969 107.715 37.63 106.172 40.174 101.688Z" fill="#2079FE"/>
<path d="M19.9659 87.9396C23.9106 85.614 25.5309 80.75 23.9863 76.532L36.0476 69.426C36.782 68.9928 37.0319 68.0352 36.6154 67.2904C36.1914 66.538 35.2526 66.2872 34.5181 66.7128L22.4569 73.8264C19.6479 70.3532 14.7037 69.35 10.759 71.6756C6.36758 74.2672 4.85329 80.0128 7.39729 84.5044C9.93372 88.9884 15.5669 90.5312 19.9659 87.9396Z" fill="#2079FE"/>
<path d="M9.19929 65.7248C13.7573 65.7248 17.543 62.3352 18.2699 57.8968H32.2013C33.0493 57.8968 33.7383 57.1976 33.7383 56.3312C33.7383 55.4724 33.0493 54.7732 32.2013 54.7732H18.2699C17.543 50.3348 13.7573 46.9452 9.19929 46.9452C4.11886 46.9452 0 51.1556 0 56.3312C0 61.5144 4.11886 65.7248 9.19929 65.7248Z" fill="#2079FE"/>
<path d="M10.759 40.9944C14.7037 43.32 19.6479 42.3168 22.4569 38.8436L34.5181 45.9496C35.2526 46.3828 36.1914 46.132 36.6154 45.3796C37.0319 44.6348 36.782 43.6772 36.0476 43.244L23.9863 36.138C25.5309 31.92 23.9106 27.056 19.9659 24.7304C15.5669 22.1388 9.93372 23.6816 7.39729 28.1656C4.85329 32.6572 6.36758 38.4028 10.759 40.9944Z" fill="#2079FE"/>
<path d="M24.2361 20.368C26.5151 24.396 31.2776 26.0528 35.4116 24.4796L42.3773 36.7916C42.8013 37.5364 43.7401 37.7948 44.4746 37.3616C45.2014 36.9284 45.4589 35.9708 45.0349 35.226L38.0691 22.914C41.4687 20.0488 42.4454 15.01 40.174 10.982C37.63 6.4904 31.9969 4.9552 27.6054 7.5468C23.2064 10.1384 21.6921 15.884 24.2361 20.368Z" fill="#2079FE"/>
<path d="M72.0724 56.3312C72.0724 46.8312 64.5161 39.1172 55.2033 39.1172C45.898 39.1172 38.3341 46.8312 38.3341 56.3312C38.3341 65.8388 45.898 73.5452 55.2033 73.5452C64.5161 73.5452 72.0724 65.8388 72.0724 56.3312Z" fill="#2079FE"/>
</svg>
