<svg width="172" height="217" viewBox="0 0 172 217" fill="none" xmlns="http://www.w3.org/2000/svg">
<path fill-rule="evenodd" clip-rule="evenodd" d="M75.9739 69.6321C88.7184 80.3242 160.5 138.5 169.764 177.33C176.406 205.168 165.934 206.462 162.869 208.793C159.805 211.123 159.039 221.223 126.097 215.008C93.1552 208.793 73.6487 183.933 64.044 174.999C53.7018 164.123 39.7571 143.588 27.8544 125.012C20.0801 112.927 13.5124 97.9627 9.6055 83.6989C9.26956 82.4715 9.67404 81.1577 10.6407 80.4574C10.7435 80.3787 10.8326 80.2765 10.9423 80.1978C12.2929 79.0491 13.3487 77.397 13.8561 75.4221C14.2263 73.9352 14.5073 72.7472 14.8021 71.5355C15.2066 69.8676 15.6111 68.1682 16.0293 66.5239C16.2761 65.5404 16.9068 64.8559 17.7638 64.5727C18.6207 64.3131 19.4503 64.5491 20.1152 65.1942C20.5745 65.6741 21.0475 66.1383 21.5343 66.6025C24.0434 68.9393 26.9914 71.1578 30.4878 73.3056C32.0166 74.234 33.6962 74.533 35.2936 74.2891C36.9252 74.0294 38.4541 73.2034 39.7017 71.8107C40.9289 70.4182 41.7035 68.7108 41.9847 66.8542C42.2658 65.0211 42.0395 63.0464 41.2854 61.2919C40.9495 60.5445 40.6341 59.8049 40.3393 59.0732C39.88 57.9245 40.0925 56.6343 40.8672 55.7689C41.6762 54.9034 42.8006 54.6989 43.7809 55.2889C47.6611 57.5862 51.61 59.6003 56.313 60.5288C57.9652 60.8514 59.5968 60.5918 61.0365 59.7814C61.4958 59.5611 61.8934 59.2543 62.2842 58.9553C63.2851 58.0899 64.67 58.2079 65.5475 59.2149C68.6736 62.8655 72.1142 66.4063 75.9739 69.6321Z" fill="#340697"/>
<path fill-rule="evenodd" clip-rule="evenodd" d="M32.277 44.5103C31.42 45.3364 31.0635 46.5872 31.3789 47.8541C32.5581 52.9129 34.3611 58.2708 36.8016 63.8881C37.3432 65.1784 37.1375 66.7046 36.2258 67.7117C35.2934 68.7423 33.9977 68.939 32.8733 68.2545C26.3947 64.2499 22.1168 60.261 19.2512 55.5641C18.6753 54.62 17.7978 54.1322 16.7969 54.1558C15.8166 54.1794 14.9733 54.738 14.4455 55.7057C12.0941 60.1194 10.5859 67.6723 9.02282 73.8326C8.83085 74.6587 8.32352 75.3668 7.68595 75.768C7.26776 76.0513 6.73989 76.2322 6.21201 76.1929C4.87516 76.1693 3.77145 75.1622 3.47661 73.6988C-2.72079 44.7542 -0.664232 34.5025 9.9004 25.2195C10.7779 24.4327 11.1824 23.2683 11.0042 22.0175C10.1952 16.8406 8.87898 10.46 8.83089 5.36189C8.81033 3.87492 9.63986 2.56108 10.8876 2.15987C12.485 1.61701 14.7473 0.767303 16.7286 0.122208C17.6746 -0.161015 18.607 0.0435314 19.3611 0.783074C20.1153 1.5069 20.4649 2.51395 20.3963 3.62336C19.9781 8.68217 19.0595 14.7796 19.2377 19.1933C19.2926 20.7826 20.2935 22.0336 21.6441 22.2932C23.5225 22.6394 25.4558 23.1823 27.3822 23.8825C33.5453 26.0775 39.8594 29.8619 45.7416 34.7004C50.8834 38.9489 55.7303 43.9842 59.8367 49.4599C60.5565 50.4434 60.7348 51.7336 60.3097 52.8823C60.2549 53.0003 60.2069 53.1026 60.152 53.2284C59.5556 54.4558 58.3765 55.1009 57.1699 54.857C49.2036 53.3071 43.2324 47.8864 35.3003 43.9604C34.2583 43.449 33.1203 43.6448 32.277 44.5103Z" fill="#0A640E"/>
</svg>
