<svg width="96" height="96" viewBox="0 0 96 96" fill="none" xmlns="http://www.w3.org/2000/svg">
<path fill-rule="evenodd" clip-rule="evenodd" d="M51.91 63.348C50.6561 63.6644 49.3475 63.8324 47.9998 63.8324C46.6521 63.8324 45.3436 63.6644 44.0896 63.348L37.363 79.586C36.7849 80.9805 36.488 82.4805 36.488 83.9883C36.488 90.3438 41.6442 95.5003 48 95.5003C54.3558 95.5003 59.512 90.3441 59.512 83.9883C59.512 82.4766 59.2151 80.9805 58.637 79.586L51.91 63.348Z" fill="#FF96EE"/>
<path fill-rule="evenodd" clip-rule="evenodd" d="M61.613 56.086C60.2614 58.3555 58.3552 60.2579 56.0857 61.6133L62.8123 77.8553C63.3904 79.2537 64.2381 80.5233 65.3084 81.5897C69.8006 86.0819 77.0934 86.0819 81.5854 81.5897C86.0776 77.0975 86.0776 69.8047 81.5854 65.3127C80.519 64.2463 79.2495 63.3986 77.851 62.8166L61.613 56.086Z" fill="#FF96EE"/>
<path fill-rule="evenodd" clip-rule="evenodd" d="M34.387 56.086L18.145 62.8126C16.7466 63.3907 15.477 64.2384 14.4106 65.3087C9.9184 69.8009 9.9184 77.0937 14.4106 81.5857C18.9028 86.0779 26.1956 86.0779 30.6876 81.5857C31.754 80.5193 32.6017 79.2498 33.1837 77.8513L39.9103 61.6093C37.6447 60.2577 35.7424 58.3555 34.387 56.086Z" fill="#FF96EE"/>
<path fill-rule="evenodd" clip-rule="evenodd" d="M63.348 51.91L79.586 58.6366C80.9805 59.2147 82.4805 59.5116 83.9883 59.5116C90.3438 59.5116 95.5003 54.3554 95.5003 47.9996C95.5003 41.6438 90.3441 36.4876 83.9883 36.4876C82.4766 36.4876 80.9805 36.7845 79.586 37.3626L63.348 44.0892C63.6644 45.3431 63.8324 46.6517 63.8324 47.9994C63.8324 49.3471 63.6644 50.656 63.348 51.91Z" fill="#FF96EE"/>
<path fill-rule="evenodd" clip-rule="evenodd" d="M32.652 44.09L16.414 37.3634C15.0195 36.7853 13.5195 36.4884 12.0117 36.4884C5.6562 36.4884 0.499699 41.6446 0.499699 48.0004C0.499699 54.3562 5.6559 59.5124 12.0117 59.5124C13.5234 59.5124 15.0195 59.2155 16.414 58.6374L32.652 51.9108C32.3356 50.6569 32.1676 49.3483 32.1676 48.0006C32.1676 46.6529 32.3356 45.344 32.652 44.09Z" fill="#FF96EE"/>
<path fill-rule="evenodd" clip-rule="evenodd" d="M39.914 34.387L33.1874 18.145C32.6093 16.7466 31.7616 15.477 30.6913 14.4106C26.1991 9.91839 18.9063 9.91839 14.4143 14.4106C9.9221 18.9028 9.9221 26.1956 14.4143 30.6876C15.4182 31.6915 16.594 32.4962 17.887 33.0704L18.1487 33.1837L34.3907 39.9103C35.7423 37.6447 37.6445 35.7424 39.914 34.387Z" fill="#FF96EE"/>
<path fill-rule="evenodd" clip-rule="evenodd" d="M61.613 39.914L77.855 33.1874C79.2534 32.6093 80.523 31.7616 81.5894 30.6913C86.0816 26.1991 86.0816 18.9063 81.5894 14.4143C77.0972 9.9221 69.8044 9.9221 65.3124 14.4143C64.3085 15.4182 63.5038 16.594 62.9296 17.887L62.8163 18.1487L56.0897 34.3907C58.3553 35.7423 60.2576 37.6445 61.613 39.914Z" fill="#FF96EE"/>
<path fill-rule="evenodd" clip-rule="evenodd" d="M51.91 32.652L58.6366 16.414C59.2147 15.0195 59.5116 13.5195 59.5116 12.0117C59.5116 5.65619 54.3554 0.499695 47.9996 0.499695C41.6438 0.499695 36.4876 5.65589 36.4876 12.0117C36.4876 13.5234 36.7845 15.0195 37.3626 16.414L44.0892 32.652C45.3431 32.3356 46.6517 32.1676 47.9994 32.1676C49.3471 32.1676 50.656 32.3356 51.91 32.652Z" fill="#FF96EE"/>
<path fill-rule="evenodd" clip-rule="evenodd" d="M59.309 48C59.309 54.2461 54.2465 59.309 48 59.309C41.7535 59.309 36.691 54.2465 36.691 48C36.691 41.7535 41.7535 36.691 48 36.691C54.2465 36.691 59.309 41.7535 59.309 48Z" fill="#2C5E69"/>
</svg>
