<svg width="91" height="93" viewBox="0 0 91 93" fill="none" xmlns="http://www.w3.org/2000/svg">
<path d="M88.8778 19.0591C87.9604 17.8454 86.703 16.932 85.2658 16.4353C83.8285 15.9386 82.2766 15.8811 80.8075 16.2701C81.0446 14.7743 80.8429 13.2413 80.227 11.857C79.611 10.4727 78.6072 9.29634 77.3372 8.47063C76.0673 7.64492 74.5856 7.20526 73.0719 7.20493C71.5581 7.20461 70.0772 7.64363 68.8087 8.4688C68.5834 6.95171 67.9179 5.53373 66.8948 4.39084C65.8717 3.24794 64.5361 2.43043 63.0537 2.03976C61.5713 1.64909 60.0074 1.70245 58.556 2.19323C57.1047 2.684 55.8297 3.5906 54.8894 4.80049C54.1966 3.453 53.1294 2.33428 51.8164 1.57909C50.5035 0.8239 49.0007 0.464459 47.4892 0.544073C45.9776 0.623686 44.5218 1.13896 43.2972 2.02781C42.0725 2.91666 41.1312 4.14117 40.5866 5.55383C39.5157 4.48295 38.1579 3.74536 36.6775 3.4304C35.1972 3.11543 33.6578 3.23659 32.2457 3.77921C30.8337 4.32182 29.6097 5.26261 28.7218 6.48766C27.834 7.7127 27.3204 9.16945 27.2432 10.6815C25.8952 9.99226 24.3768 9.70867 22.872 9.86506C21.3671 10.0215 19.9404 10.6111 18.7644 11.5626C17.5885 12.5142 16.7139 13.7868 16.2465 15.2263C15.779 16.6658 15.7389 18.2105 16.1309 19.6734C14.6352 19.4386 13.1041 19.6416 11.722 20.2578C10.3399 20.8739 9.16573 21.8771 8.34102 23.1463C7.51631 24.4155 7.0762 25.8966 7.07372 27.4113C7.07124 28.926 7.50649 30.4096 8.32704 31.6833C6.8316 31.9197 5.43731 32.5852 4.31324 33.5992C3.18918 34.6132 2.38363 35.9321 1.99429 37.3959C1.60494 38.8597 1.64853 40.4056 2.11976 41.8461C2.59099 43.2866 3.46963 44.5599 4.64911 45.5114C3.30025 46.1973 2.17961 47.2603 1.42302 48.5714C0.666425 49.8825 0.306356 51.3855 0.386447 52.8982C0.466539 54.4109 0.983355 55.8684 1.87426 57.094C2.76516 58.3196 3.99191 59.2607 5.40582 59.8033C4.21584 60.9973 3.44355 62.5444 3.20396 64.2143C2.96438 65.8841 3.27031 67.5874 4.07619 69.0703C4.88208 70.5533 6.14481 71.7366 7.67634 72.4441C9.20787 73.1516 10.9263 73.3454 12.5756 72.9967L14.0644 72.6692C16.472 72.1535 18.736 71.114 20.6961 69.6244C28.4731 63.7149 38.2534 61.0827 47.9504 62.2896L54.6945 63.0722L71.0632 91.4237C71.3848 91.9806 71.9142 92.3872 72.5349 92.554C73.1556 92.7207 73.8169 92.634 74.3731 92.3128C74.9294 91.9917 75.3351 91.4624 75.5011 90.8415C75.667 90.2205 75.5796 89.5588 75.258 89.0018L58.8893 60.6503L61.5836 54.4185C65.3956 45.423 72.5624 38.272 81.5628 34.483C83.8329 33.5303 85.8652 32.0893 87.5156 30.2622L88.5436 29.1366C89.8041 27.7807 90.5321 26.0142 90.5935 24.1624C90.6549 22.3107 90.0456 20.4983 88.8778 19.0591ZM84.9605 25.885L83.9324 27.0106C82.7523 28.3108 81.3035 29.3383 79.6864 30.022C69.5177 34.2744 61.4174 42.3376 57.1145 52.4904L54.7749 58.1255L48.6201 57.3947C39.5096 56.2666 30.2834 58.1427 22.3414 62.7382C20.7944 63.6373 19.3032 64.6291 17.8759 65.7084C16.4753 66.767 14.861 67.5079 13.145 67.8797L11.6561 68.2073C10.9624 68.384 10.2273 68.2913 9.59843 67.9479C8.9696 67.6046 8.49368 67.0359 8.2663 66.3562C7.99654 65.7079 7.98101 64.9819 8.22281 64.3232C8.46462 63.6645 8.94595 63.1216 9.57069 62.803L13.7655 60.3811C14.2103 60.1264 14.5627 59.737 14.772 59.2689C14.9814 58.8008 15.0368 58.2782 14.9304 57.7762C14.824 57.2742 14.5612 56.8188 14.1799 56.4754C13.7986 56.1321 13.3184 55.9185 12.8083 55.8654L8.10006 55.3636C7.38536 55.3315 6.71007 55.0256 6.21409 54.5092C5.7181 53.9927 5.43943 53.3054 5.4358 52.5896C5.37546 51.926 5.55048 51.2626 5.93016 50.7157C6.30983 50.1688 6.86994 49.7734 7.51227 49.5986L23.2718 50.4964C23.8741 50.532 24.4677 50.3414 24.9365 49.962C25.4054 49.5825 25.7156 49.0415 25.8067 48.4449C25.8988 47.8446 25.7622 47.2314 25.4242 46.7265C25.0861 46.2217 24.5711 45.862 23.981 45.7187L8.39661 41.9757C7.78457 41.6572 7.30285 41.1347 7.03483 40.4986C6.76681 39.8626 6.72936 39.153 6.92897 38.4928C7.12858 37.8326 7.55268 37.2632 8.12786 36.8833C8.70304 36.5034 9.39309 36.3368 10.0786 36.4124L14.4899 37.0296C14.9961 37.0814 15.5056 36.9724 15.946 36.7181C16.3865 36.4638 16.7356 36.0771 16.9439 35.6128C17.1639 35.1624 17.2389 34.6546 17.1583 34.1595C17.0778 33.6643 16.8458 33.2062 16.4943 32.8482L12.9862 29.5814C12.4911 29.1091 12.1747 28.4798 12.0909 27.8007C12.0072 27.1216 12.1612 26.4348 12.5269 25.8571C12.8925 25.2795 13.4472 24.8467 14.0963 24.6327C14.7454 24.4186 15.4489 24.4364 16.0868 24.683L20.3936 26.6208C20.8599 26.8296 21.38 26.8858 21.8797 26.7813C22.3795 26.6768 22.8333 26.4169 23.1763 26.0388C23.5193 25.6606 23.734 25.1836 23.7897 24.6757C23.8455 24.1678 23.7394 23.6552 23.4867 23.2109L21.1223 19.1157C20.7881 18.5195 20.6685 17.8268 20.7835 17.1534C20.8986 16.48 21.2412 15.8669 21.7543 15.4166C22.2673 14.9662 22.9195 14.706 23.6017 14.6795C24.284 14.653 24.955 14.8617 25.5023 15.2708L35.0762 29.0923C35.3978 29.6493 35.9272 30.0559 36.5479 30.2227C37.1686 30.3894 37.8298 30.3027 38.3861 29.9815C38.9424 29.6604 39.3481 29.1311 39.5141 28.5102C39.68 27.8892 39.5926 27.2275 39.271 26.6705L32.1091 11.4564C32.0285 10.7778 32.1832 10.0924 32.5473 9.51476C32.9114 8.93716 33.4629 8.50244 34.1094 8.28333C34.7559 8.06421 35.4583 8.07399 36.0989 8.31105C36.7396 8.54811 37.2797 8.99806 37.6289 9.5856L39.9933 13.6808C40.2367 14.1544 40.629 14.5348 41.1097 14.7634C41.5904 14.9919 42.1327 15.0559 42.653 14.9454C43.1551 14.8376 43.6098 14.5728 43.9514 14.1894C44.293 13.8059 44.5038 13.3236 44.5534 12.8121L44.9471 8.02054C45.0525 7.3447 45.3888 6.72659 45.8988 6.27148C46.4087 5.81636 47.0608 5.55241 47.7439 5.52457C48.427 5.49673 49.0989 5.70673 49.6451 6.1188C50.1913 6.53086 50.5781 7.11952 50.7395 7.78448L51.8146 12.456C51.9229 12.9586 52.188 13.4138 52.5716 13.7561C52.9552 14.0983 53.4374 14.3099 53.9487 14.3601C54.4549 14.4119 54.9643 14.3029 55.4048 14.0486C55.8453 13.7943 56.1944 13.4076 56.4026 12.9433L58.3222 8.6149C58.5953 7.9884 59.077 7.4762 59.6854 7.16547C60.2938 6.85473 60.9912 6.76466 61.659 6.91058C62.3268 7.05651 62.9236 7.42941 63.348 7.96583C63.7724 8.50224 63.9981 9.16903 63.9867 9.85273L58.119 24.4411C57.9045 24.9996 57.9042 25.618 58.1182 26.1772C58.3321 26.7365 58.7452 27.1969 59.2778 27.47C59.8104 27.743 60.425 27.8094 61.0031 27.6562C61.5812 27.5031 62.082 27.1413 62.409 26.6404L70.9411 13.034C71.4377 12.5699 72.0791 12.2915 72.7574 12.2457C73.4356 12.1999 74.1092 12.3895 74.6646 12.7825C75.2199 13.1755 75.6231 13.7479 75.8062 14.4033C75.9893 15.0587 75.941 15.7569 75.6696 16.3803L73.7501 20.7087C73.541 21.1769 73.4859 21.6996 73.5926 22.2015C73.6993 22.7034 73.9623 23.1587 74.3438 23.5019C74.7254 23.845 75.2057 24.0583 75.7157 24.1111C76.2258 24.1638 76.7392 24.0533 77.1822 23.7955L81.377 21.3736C81.9653 20.9919 82.6762 20.8465 83.3675 20.9664C84.0588 21.0863 84.6798 21.4628 85.1064 22.0206C85.5752 22.5642 85.8208 23.2653 85.7937 23.9824C85.7666 24.6995 85.4689 25.3794 84.9605 25.885Z" fill="#21E128"/>
</svg>
