<svg width="196" height="193" viewBox="0 0 196 193" fill="none" xmlns="http://www.w3.org/2000/svg">
<path d="M97.3385 83.9426C101.929 77.9993 105.231 61.4532 105.231 41.9713C105.231 22.4895 101.929 5.94334 97.3385 0C92.7484 5.94334 89.4462 22.4895 89.4462 41.9713C89.4462 61.4532 92.7484 77.9993 97.3385 83.9426Z" fill="#B43AFF"/>
<path d="M105.55 89.3726C113.076 88.3567 127.328 78.9493 141.359 65.1735C155.391 51.3977 164.973 37.4053 166.007 30.0162C158.481 31.0321 144.229 40.4396 130.198 54.2154C116.167 67.9911 106.585 81.9835 105.55 89.3726Z" fill="#B43AFF"/>
<path d="M29.2576 30.0161C30.2924 37.4053 39.8744 51.3977 53.9057 65.1734C67.937 78.9492 82.1889 88.3566 89.7151 89.3726C88.6803 81.9834 79.0984 67.9911 65.067 54.2153C51.0358 40.4396 36.7838 31.0322 29.2576 30.0161Z" fill="#B43AFF"/>
<path d="M97.3385 109.057C101.929 115.001 105.231 131.547 105.231 151.029C105.231 170.511 101.929 187.057 97.3385 193C92.7484 187.057 89.4462 170.511 89.4462 151.029C89.4462 131.547 92.7484 115.001 97.3385 109.057Z" fill="#B43AFF"/>
<path d="M105.55 103.627C113.076 104.643 127.328 114.051 141.359 127.827C155.391 141.602 164.973 155.595 166.007 162.984C158.481 161.968 144.229 152.56 130.198 138.785C116.167 125.009 106.585 111.017 105.55 103.627Z" fill="#B43AFF"/>
<path d="M29.2576 162.984C30.2924 155.595 39.8744 141.602 53.9057 127.827C67.937 114.051 82.1889 104.643 89.7151 103.627C88.6803 111.017 79.0984 125.009 65.067 138.785C51.0358 152.56 36.7838 161.968 29.2576 162.984Z" fill="#B43AFF"/>
<path d="M195.992 96.8569C189.939 101.363 173.085 104.605 153.242 104.605C133.399 104.605 116.546 101.363 110.492 96.8569C116.546 92.3504 133.399 89.1084 153.242 89.1084C173.085 89.1084 189.939 92.3504 195.992 96.8569Z" fill="#B43AFF"/>
<path d="M85.4999 96.8569C79.4464 101.363 62.5932 104.605 42.75 104.605C22.9067 104.605 6.05356 101.363 -3.05176e-05 96.8569C6.05356 92.3504 22.9067 89.1084 42.75 89.1084C62.5932 89.1084 79.4464 92.3504 85.4999 96.8569Z" fill="#B43AFF"/>
<path d="M105 96C105 99.866 101.866 103 98 103C94.134 103 91 99.866 91 96C91 92.134 94.134 89 98 89C101.866 89 105 92.134 105 96Z" fill="#0A640E"/>
</svg>
